<?xml version="1.0" encoding="utf-8"?>
<!-- Generator: Adobe Illustrator 20.1.0, SVG Export Plug-In . SVG Version: 6.00 Build 0)  -->
<svg version="1.1" id="Layer_1" xmlns="http://www.w3.org/2000/svg" xmlns:xlink="http://www.w3.org/1999/xlink" x="0px" y="0px"
	 viewBox="0 0 720 360" style="enable-background:new 0 0 720 360;" xml:space="preserve">
<style type="text/css">
	.st0{fill:#FAF4C9;}
	.st1{fill:#EF1F26;}
	.st2{fill:#41ACA9;}
</style>
<g>
	<rect class="st0" width="720" height="360"/>
	<polyline class="st1" points="720,144 396,144 396,0 324,0 324,144 0,144 0,216 324,216 324,360 396,360 396,216 720,216 	"/>
	<polyline class="st1" points="480,240 533.7,240 720,333.2 720,360 	"/>
	<polygon class="st1" points="240,120 186.3,120 0,26.8 0,0 	"/>
	<polygon class="st1" points="240,240 293.7,240 53.7,360 0,360 	"/>
	<polygon class="st1" points="480,120 426.3,120 666.3,0 720,0 	"/>
	<polyline class="st2" points="0,240 0,319.8 159.5,240 	"/>
	<polygon class="st2" points="720,240 720,319.8 560.5,240 	"/>
	<polygon class="st2" points="0,120 0,40.2 159.5,120 	"/>
	<polygon class="st2" points="720,120 720,40.2 560.5,120 	"/>
	<polygon class="st2" points="300,360 300,250.2 80.5,360 	"/>
	<polygon class="st2" points="420,360 420,250.2 639.5,360 	"/>
	<polygon class="st2" points="300,0 300,109.8 80.5,0 	"/>
	<polygon class="st2" points="420,0 420,109.8 639.5,0 	"/>
</g>
</svg>
