<svg id="Layer_1" data-name="Layer 1" xmlns="http://www.w3.org/2000/svg" viewBox="0 0 100 100"><defs><style>.cls-1{fill:#fff;fill-rule:evenodd;}</style></defs><title>github-icon</title><path class="cls-1" d="M50,0A50,50,0,0,0,34.2,97.44c2.5.46,3.41-1.09,3.41-2.41s0-4.33-.07-8.5c-13.91,3-16.84-6.7-16.84-6.7-2.27-5.78-5.55-7.31-5.55-7.31-4.54-3.1.34-3,.34-3,5,.35,7.66,5.15,7.66,5.15,4.46,7.64,11.7,5.43,14.55,4.15a10.68,10.68,0,0,1,3.17-6.68C29.77,70.84,18.1,66.55,18.1,47.39A19.33,19.33,0,0,1,23.25,34c-.51-1.26-2.23-6.35.49-13.23,0,0,4.2-1.34,13.75,5.13a47.39,47.39,0,0,1,25,0c9.55-6.47,13.74-5.13,13.74-5.13,2.73,6.88,1,12,.5,13.23a19.29,19.29,0,0,1,5.14,13.42c0,19.21-11.69,23.43-22.83,24.67,1.8,1.54,3.39,4.6,3.39,9.26C62.46,88,62.4,93.4,62.4,95c0,1.34.9,2.89,3.44,2.4A50,50,0,0,0,50,0Z"/></svg>