<svg id="Layer_1" data-name="Layer 1" xmlns="http://www.w3.org/2000/svg" viewBox="0 0 340 100"><defs><style>.cls-1,.cls-2{fill:#fff;}.cls-1{fill-rule:evenodd;}</style></defs><title>icons</title><path class="cls-1" d="M50,0A50,50,0,0,0,34.2,97.44c2.5.46,3.41-1.09,3.41-2.41s0-4.33-.07-8.5c-13.91,3-16.84-6.7-16.84-6.7-2.27-5.78-5.55-7.31-5.55-7.31-4.54-3.1.34-3,.34-3,5,.35,7.66,5.15,7.66,5.15,4.46,7.64,11.7,5.43,14.55,4.15a10.68,10.68,0,0,1,3.17-6.68C29.77,70.84,18.1,66.55,18.1,47.39A19.33,19.33,0,0,1,23.25,34c-.51-1.26-2.23-6.35.49-13.23,0,0,4.2-1.34,13.75,5.13a47.39,47.39,0,0,1,25,0c9.55-6.47,13.74-5.13,13.74-5.13,2.73,6.88,1,12,.5,13.23a19.29,19.29,0,0,1,5.14,13.42c0,19.21-11.69,23.43-22.83,24.67,1.8,1.54,3.39,4.6,3.39,9.26C62.46,88,62.4,93.4,62.4,95c0,1.34.9,2.89,3.44,2.4A50,50,0,0,0,50,0Z"/><path id="White" class="cls-2" d="M214.48,0h-89A5.52,5.52,0,0,0,120,5.52v89a5.52,5.52,0,0,0,5.52,5.52h47.89V61.27h-13V46.18h13V35.05c0-12.92,7.89-19.95,19.41-19.95a106.92,106.92,0,0,1,11.65.59V29.2h-8c-6.27,0-7.48,3-7.48,7.35v9.64h14.94L202,61.27H189V100h25.48A5.52,5.52,0,0,0,220,94.48v-89A5.52,5.52,0,0,0,214.48,0Z"/><path class="cls-2" d="M332.6,0H247.38A7.3,7.3,0,0,0,240,7.21V92.78a7.3,7.3,0,0,0,7.38,7.22H332.6a7.32,7.32,0,0,0,7.4-7.22V7.21A7.31,7.31,0,0,0,332.6,0ZM269.66,85.21H254.82V37.49h14.85ZM262.25,31a8.6,8.6,0,1,1,8.6-8.6A8.6,8.6,0,0,1,262.25,31Zm63,54.24H310.38V62c0-5.53-.1-12.65-7.71-12.65s-8.89,6-8.89,12.26v23.6H279V37.49h14.22V44h.2c2-3.75,6.82-7.71,14-7.71,15,0,17.79,9.88,17.79,22.73Z"/></svg>