<svg id="Layer_1" data-name="Layer 1" xmlns="http://www.w3.org/2000/svg" viewBox="0 0 100 100"><defs><style>.cls-1{fill:#fff;}</style></defs><title>linkedin-icon</title><path class="cls-1" d="M92.6,0H7.38A7.3,7.3,0,0,0,0,7.21V92.78A7.3,7.3,0,0,0,7.38,100H92.6a7.32,7.32,0,0,0,7.4-7.22V7.21A7.31,7.31,0,0,0,92.6,0ZM29.66,85.21H14.82V37.49H29.66ZM22.25,31a8.6,8.6,0,1,1,8.6-8.6A8.6,8.6,0,0,1,22.25,31Zm63,54.24H70.38V62c0-5.53-.09-12.65-7.71-12.65s-8.89,6-8.89,12.26v23.6H39V37.49H53.19V44h.2c2-3.75,6.82-7.71,14-7.71,15,0,17.79,9.88,17.79,22.73Z"/></svg>