<?xml version="1.0" encoding="utf-8"?>
<!-- Generator: Adobe Illustrator 20.1.0, SVG Export Plug-In . SVG Version: 6.00 Build 0)  -->
<svg version="1.1" id="Layer_1" xmlns="http://www.w3.org/2000/svg" xmlns:xlink="http://www.w3.org/1999/xlink" x="0px" y="0px"
	 viewBox="0 0 100 100" style="enable-background:new 0 0 100 100;" xml:space="preserve">
<style type="text/css">
	.st0{fill:#FFFFFF;}
</style>
<path class="st0" d="M74,69.2c-5.6,7-14.3,11.5-24,11.5C33,80.8,19.2,67,19.2,50C19.2,33,33,19.2,50,19.2c13.6,0,25.2,8.9,29.2,21.2
	H62c-2.8-3.5-7.1-5.8-12-5.8c-8.5,0-15.4,6.9-15.4,15.4c0,8.5,6.9,15.4,15.4,15.4c4.9,0,9.2-2.3,12-5.8h37.1
	c0.6-3.1,0.9-6.3,0.9-9.6c0-27.6-22.4-50-50-50S0,22.4,0,50c0,27.6,22.4,50,50,50c20.8,0,38.6-12.7,46.2-30.8H74z"/>
</svg>
