<?xml version="1.0" encoding="utf-8"?>
<!-- Generator: Adobe Illustrator 20.1.0, SVG Export Plug-In . SVG Version: 6.00 Build 0)  -->
<svg version="1.1" id="Layer_1" xmlns="http://www.w3.org/2000/svg" xmlns:xlink="http://www.w3.org/1999/xlink" x="0px" y="0px"
	 viewBox="0 0 350.9 351.2" style="enable-background:new 0 0 350.9 351.2;" xml:space="preserve">
<style type="text/css">
	.st0{fill:none;}
	.st1{fill:#FAF4C9;}
	.st2{fill:#EF1F26;}
	.st3{fill:#41ACA9;}
</style>
<path class="st0" d="M295.6,235.9l36.9,18.5c0,0,0,0,0,0L295.6,235.9z"/>
<path class="st1" d="M100.4,97.9L37.9,66.7c-7.5,9.5-14,19.8-19.4,30.6l37.1,18.6H10.5c-2.8,7.8-5.1,15.8-6.8,24h69.8
	C79.1,124,88.3,109.6,100.4,97.9z"/>
<path class="st1" d="M139.1,73.8V3.9c-3,0.6-5.9,1.3-8.9,2.1c-5.1,1.4-10.2,3-15.1,4.8V86C122.4,81,130.4,76.9,139.1,73.8z"/>
<path class="st1" d="M135,139.9h4.1v-4.2C137.7,137.1,136.3,138.5,135,139.9z"/>
<path class="st1" d="M211.1,216.4c1.6-1.4,3.1-2.9,4.5-4.5h-4.5V216.4z"/>
<path class="st1" d="M211.1,277.4v70.2c3.3-0.7,6.7-1.5,10-2.4c4.8-1.3,9.4-2.8,14-4.4v-75.2C227.7,270.4,219.7,274.4,211.1,277.4z"
	/>
<path class="st1" d="M340.5,235.9c2.9-7.8,5.2-15.8,6.9-24h-46.8l-26.2,7c-5.6,12.9-13.8,24.6-24.1,34.4l62.7,31.4
	c7.5-9.4,14-19.6,19.4-30.4l-36.9-18.5H340.5z"/>
<path class="st1" d="M265.5,115.9c0.1,0.2,0.3,0.4,0.4,0.6l-54.9,14.7v8.7h136.5c-0.7-3.2-1.5-6.5-2.3-9.7
	c-3.1-11.6-7.3-22.5-12.4-32.9l-37.2,18.6H265.5z"/>
<path class="st1" d="M259.2,107.3l61.4-30.7c-2.4-3.5-4.9-6.9-7.5-10.2l-62.8,31.2C253.4,100.6,256.4,103.9,259.2,107.3z"/>
<path class="st1" d="M235.1,85.5v-75c-7.8-2.8-15.8-5.1-24-6.8v69.9C219.6,76.5,227.6,80.5,235.1,85.5z"/>
<path class="st1" d="M92.2,244.5l-61.3,30.6c2.2,3.2,4.6,6.4,7,9.4l62.3-31.4C97.4,250.4,94.7,247.5,92.2,244.5z"/>
<path class="st1" d="M85.8,235.9c-4.9-7.3-9-15.4-12.1-24H3.8c0.6,3.1,1.4,6.1,2.2,9.2c3.1,11.7,7.4,22.8,12.6,33.3l37-18.4H85.8z"
	/>
<path class="st1" d="M115.1,265.2v75.2c7.8,2.9,15.8,5.2,24,7v-70C130.6,274.3,122.5,270.2,115.1,265.2z"/>
<path class="st1" d="M139.1,215.5v-3.6h-3.5C136.7,213.2,137.9,214.3,139.1,215.5z"/>
<path class="st2" d="M203.5,279.8c-22.1,6.1-44.4,4.7-64.4-2.4v70c23.1,4.9,47.6,5.3,72,0.2v-70.2
	C208.6,278.3,206.1,279.1,203.5,279.8z"/>
<path class="st2" d="M147.6,71.1c21.7-5.8,43.7-4.5,63.5,2.4V3.6c-23.2-4.8-47.6-5-72,0.2v69.9C141.9,72.8,144.7,71.9,147.6,71.1z"
	/>
<path class="st2" d="M211.1,131.2l-3.5,0.9c-12.7-9.3-29.4-13.2-46-8.8c-8.7,2.3-16.3,6.7-22.5,12.4v4.2H135
	c-11.5,13.1-16.5,31.6-11.6,49.7c2.3,8.6,6.6,16.1,12.2,22.3h3.5v3.6c13.2,12,32,17.3,50.5,12.4c8.3-2.2,15.5-6.2,21.5-11.5v-4.5
	h4.5c3.9-4.4,7.1-9.3,9.4-14.6l125.9-33.7c-0.6-7.8-1.7-15.7-3.4-23.6H211.1V131.2z"/>
<path class="st2" d="M300.7,211.9h46.8c0.9-4.3,1.7-8.7,2.3-13.2L300.7,211.9z"/>
<path class="st2" d="M71.1,203.6c-5.8-21.8-4.6-43.9,2.4-63.7H3.7c-4.8,23.2-5,47.6,0.1,72h69.9C72.8,209.2,71.9,206.4,71.1,203.6z"
	/>
<path class="st2" d="M295.6,235.9l36.9,18.4c3-6,5.7-12.1,8-18.4H295.6z"/>
<path class="st2" d="M18.5,97.3c-3,6-5.7,12.3-8,18.6h45.1L18.5,97.3z"/>
<path class="st2" d="M85.8,235.9H55.6l-37,18.4c3.6,7.3,7.7,14.2,12.3,20.8l61.3-30.6C89.9,241.7,87.8,238.9,85.8,235.9z"/>
<path class="st2" d="M265.5,115.9h30l37.2-18.7c-3.6-7.2-7.7-14.1-12.1-20.7l-61.4,30.7C261.4,110,263.6,112.9,265.5,115.9z"/>
<path class="st2" d="M332.8,97.3C332.8,97.3,332.8,97.2,332.8,97.3l-37.2,18.6L332.8,97.3z"/>
<path class="st3" d="M100.2,253.2l-62.3,31.4c20.2,25.5,47,44.8,77.2,55.9v-75.2C109.8,261.7,104.8,257.6,100.2,253.2z"/>
<path class="st3" d="M235.1,340.8c31.7-11.4,58.3-31.1,78-56.1l-62.7-31.4c-4.7,4.5-9.8,8.6-15.3,12.2V340.8z"/>
<path class="st3" d="M115.1,86V10.8C83.8,22.2,57.5,41.9,37.9,66.7l62.5,31.2C104.9,93.5,109.8,89.5,115.1,86z"/>
<path class="st3" d="M250.3,97.6l62.8-31.2c-20.4-25.6-47.6-45-78.1-56v75C240.5,89,245.6,93.1,250.3,97.6z"/>
</svg>
